<?xml version="1.0" encoding="UTF-8" standalone="no"?>
<svg width="460px" height="592px" viewBox="0 0 460 592" version="1.1" xmlns="http://www.w3.org/2000/svg" xmlns:xlink="http://www.w3.org/1999/xlink">
    <!-- Generator: Sketch 43.2 (39069) - http://www.bohemiancoding.com/sketch -->
    <title>1024_r_black</title>
    <desc>Created with Sketch.</desc>
    <defs></defs>
    <g id="Page-2" stroke="none" stroke-width="1" fill="none" fill-rule="evenodd">
        <g id="R-Black" transform="translate(-1552.000000, -221.000000)" fill="#292D35">
            <g id="1024_r_black" transform="translate(1552.000000, 221.000000)">
                <polygon id="Path-57" points="44 304 288.113055 592 460 592 212.513916 304"></polygon>
                <path d="M460,213.745657 C460,0.427052627 235.329878,4.14615298e-14 235.329878,4.14615298e-14 L0,0 C0,0 65.1992721,75.1835938 101.127782,118.377657 C124.107763,102.632487 160.793022,82.0429688 195.49854,82.0429688 C251.688968,82.0429688 294.163683,120.085938 294.163683,120.085938 C294.163683,120.085938 327.062393,123.419922 383.378105,141.941406 C426.092252,150.589844 428.42038,195.745657 428.42038,199.745657 C428.42038,199.745657 347.774362,180.843654 305.339088,207.015625 C262.903815,233.187596 256.453514,303.799805 256.453514,303.799805 L339.022276,400 C339.022276,400 460,348.257781 460,213.745657 Z" id="Path-58"></path>
            </g>
        </g>
    </g>
</svg>