<?xml version="1.0" encoding="UTF-8" standalone="no"?>
<svg width="1024px" height="1024px" viewBox="0 0 1024 1024" version="1.1" xmlns="http://www.w3.org/2000/svg" xmlns:xlink="http://www.w3.org/1999/xlink">
    <!-- Generator: Sketch 43.2 (39069) - http://www.bohemiancoding.com/sketch -->
    <title>1024</title>
    <desc>Created with Sketch.</desc>
    <defs></defs>
    <g id="Page-1" stroke="none" stroke-width="1" fill="none" fill-rule="evenodd">
        <g id="Desktop-HD-Copy-3" transform="translate(-1260.000000, -17.000000)">
            <g id="1024" transform="translate(1260.000000, 17.000000)">
                <circle id="Oval-3" fill="#292D35" cx="512" cy="512" r="512"></circle>
                <polygon id="Path-57" fill="#ED5441" points="336 508 580.113055 796 752 796 504.513916 508"></polygon>
                <path d="M752,417.745657 C752,204.427053 527.329878,204 527.329878,204 L292,204 C292,204 357.199272,279.183594 393.127782,322.377657 C416.107763,306.632487 452.793022,286.042969 487.49854,286.042969 C543.688968,286.042969 586.163683,324.085938 586.163683,324.085938 C586.163683,324.085938 619.062393,327.419922 675.378105,345.941406 C718.092252,354.589844 720.42038,399.745657 720.42038,403.745657 C720.42038,403.745657 639.774362,384.843654 597.339088,411.015625 C554.903815,437.187596 548.453514,507.799805 548.453514,507.799805 L631.022276,604 C631.022276,604 752,552.257781 752,417.745657 Z" id="Path-58" fill="#F59340"></path>
            </g>
        </g>
    </g>
</svg>