<?xml version="1.0" encoding="UTF-8" standalone="no"?>
<svg width="59px" height="76px" viewBox="0 0 59 76" version="1.1" xmlns="http://www.w3.org/2000/svg" xmlns:xlink="http://www.w3.org/1999/xlink">
    <!-- Generator: Sketch 43.2 (39069) - http://www.bohemiancoding.com/sketch -->
    <title>129_r_white</title>
    <desc>Created with Sketch.</desc>
    <defs></defs>
    <g id="Page-2" stroke="none" stroke-width="1" fill="none" fill-rule="evenodd">
        <g id="R-White" transform="translate(-52.000000, -42.000000)" fill="#F8FAFC">
            <g id="129_r_white" transform="translate(52.000000, 42.000000)">
                <polygon id="Path-57" points="6.328125 38.9960938 37.0806485 75.2773438 58.734375 75.2773438 27.5569289 38.9960938"></polygon>
                <path d="M58.734375,27.6261618 C58.734375,0.753017372 30.4312053,0.69921875 30.4312053,0.69921875 L0.78515625,0.69921875 C0.78515625,0.69921875 8.99873643,10.1705894 13.5248866,15.6120291 C16.4198256,13.6285066 21.0413084,11.0347099 25.4133903,11.0347099 C32.4920672,11.0347099 37.8428859,15.8272324 37.8428859,15.8272324 C37.8428859,15.8272324 41.9873522,16.2472363 49.0818121,18.5805092 C54.4627934,19.6700096 54.756083,25.3585837 54.756083,25.86249 C54.756083,25.86249 44.5965748,23.4812806 39.250725,26.7783356 C33.9048752,30.0753906 33.0922884,38.9708738 33.0922884,38.9708738 L43.4940172,51.0898437 C43.4940172,51.0898437 58.734375,44.5715369 58.734375,27.6261618 Z" id="Path-58"></path>
            </g>
        </g>
    </g>
</svg>