<?xml version="1.0" encoding="UTF-8" standalone="no"?>
<svg width="129px" height="129px" viewBox="0 0 129 129" version="1.1" xmlns="http://www.w3.org/2000/svg" xmlns:xlink="http://www.w3.org/1999/xlink">
    <!-- Generator: Sketch 43.2 (39069) - http://www.bohemiancoding.com/sketch -->
    <title>129_coin_white</title>
    <desc>Created with Sketch.</desc>
    <defs>
        <circle id="path-1" cx="64.5" cy="64.5" r="64.5"></circle>
    </defs>
    <g id="Page-2" stroke="none" stroke-width="1" fill="none" fill-rule="evenodd">
        <g id="R-Raven-Coin-White" transform="translate(-16.000000, -17.000000)">
            <g id="129_coin_white" transform="translate(16.000000, 17.000000)">
                <g id="Oval-3">
                    <use fill="#F8FAFC" fill-rule="evenodd" xlink:href="#path-1"></use>
                    <circle stroke="#292D35" stroke-width="3.44083904" cx="64.5" cy="64.5" r="62.7795805"></circle>
                </g>
                <polygon id="Path-57" fill="#292D35" points="42.328125 63.9960938 73.0806485 100.277344 94.734375 100.277344 63.5569289 63.9960938"></polygon>
                <path d="M94.734375,52.6261618 C94.734375,25.7530174 66.4312053,25.6992187 66.4312053,25.6992187 L36.7851562,25.6992187 C36.7851562,25.6992187 44.9987364,35.1705894 49.5248866,40.6120291 C52.4198256,38.6285066 57.0413084,36.0347099 61.4133903,36.0347099 C68.4920672,36.0347099 73.8428859,40.8272324 73.8428859,40.8272324 C73.8428859,40.8272324 77.9873522,41.2472363 85.0818121,43.5805092 C90.4627934,44.6700096 90.756083,50.3585837 90.756083,50.86249 C90.756083,50.86249 80.5965748,48.4812806 75.250725,51.7783356 C69.9048752,55.0753906 69.0922884,63.9708738 69.0922884,63.9708738 L79.4940172,76.0898437 C79.4940172,76.0898437 94.734375,69.5715369 94.734375,52.6261618 Z" id="Path-58" fill="#292D35"></path>
            </g>
        </g>
    </g>
</svg>