<?xml version="1.0" encoding="UTF-8" standalone="no"?>
<svg width="16px" height="16px" viewBox="0 0 16 16" version="1.1" xmlns="http://www.w3.org/2000/svg" xmlns:xlink="http://www.w3.org/1999/xlink">
    <!-- Generator: Sketch 43.2 (39069) - http://www.bohemiancoding.com/sketch -->
    <title>16</title>
    <desc>Created with Sketch.</desc>
    <defs></defs>
    <g id="Page-1" stroke="none" stroke-width="1" fill="none" fill-rule="evenodd">
        <g id="Desktop-HD-Copy-3" transform="translate(-73.000000, -330.000000)">
            <g id="16" transform="translate(73.000000, 330.000000)">
                <circle id="Oval-3" fill="#292D35" cx="8" cy="8" r="8"></circle>
                <polygon id="Path-57" fill="#ED5441" points="5.25 7.9375 9.06426648 12.4375 11.75 12.4375 7.88302994 7.9375"></polygon>
                <path d="M11.75,6.52727589 C11.75,3.1941727 8.23952934,3.1875 8.23952934,3.1875 L4.5625,3.1875 C4.5625,3.1875 5.58123863,4.36224365 6.14262159,5.0371509 C6.5016838,4.79113261 7.07489097,4.46942139 7.61716469,4.46942139 C8.49514012,4.46942139 9.15880755,5.06384277 9.15880755,5.06384277 C9.15880755,5.06384277 9.67284989,5.11593628 10.5527829,5.40533447 C11.2201914,5.54046631 11.2565684,6.24602589 11.2565684,6.30852589 C11.2565684,6.30852589 9.9964744,6.01318209 9.33342326,6.42211914 C8.67037212,6.83105619 8.56958616,7.93437195 8.56958616,7.93437195 L9.85972307,9.4375 C9.85972307,9.4375 11.75,8.62902783 11.75,6.52727589 Z" id="Path-58" fill="#F59340"></path>
            </g>
        </g>
    </g>
</svg>