<?xml version="1.0" encoding="UTF-8" standalone="no"?>
<svg width="8px" height="10px" viewBox="0 0 8 10" version="1.1" xmlns="http://www.w3.org/2000/svg" xmlns:xlink="http://www.w3.org/1999/xlink">
    <!-- Generator: Sketch 43.2 (39069) - http://www.bohemiancoding.com/sketch -->
    <title>16_r_black</title>
    <desc>Created with Sketch.</desc>
    <defs></defs>
    <g id="Page-2" stroke="none" stroke-width="1" fill="none" fill-rule="evenodd">
        <g id="R-Black" transform="translate(-77.000000, -333.000000)" fill="#292D35">
            <g id="16_r_black" transform="translate(77.000000, 333.000000)">
                <polygon id="Path-57" points="1.25 4.9375 5.06426648 9.4375 7.75 9.4375 3.88302994 4.9375"></polygon>
                <path d="M7.75,3.52727589 C7.75,0.194172697 4.23952934,0.1875 4.23952934,0.1875 L0.5625,0.1875 C0.5625,0.1875 1.58123863,1.36224365 2.14262159,2.0371509 C2.5016838,1.79113261 3.07489097,1.46942139 3.61716469,1.46942139 C4.49514012,1.46942139 5.15880755,2.06384277 5.15880755,2.06384277 C5.15880755,2.06384277 5.67284989,2.11593628 6.55278289,2.40533447 C7.22019143,2.54046631 7.25656844,3.24602589 7.25656844,3.30852589 C7.25656844,3.30852589 5.9964744,3.01318209 5.33342326,3.42211914 C4.67037212,3.83105619 4.56958616,4.93437195 4.56958616,4.93437195 L5.85972307,6.4375 C5.85972307,6.4375 7.75,5.62902783 7.75,3.52727589 Z" id="Path-58"></path>
            </g>
        </g>
    </g>
</svg>