<?xml version="1.0" encoding="UTF-8" standalone="no"?>
<svg width="256px" height="256px" viewBox="0 0 256 256" version="1.1" xmlns="http://www.w3.org/2000/svg" xmlns:xlink="http://www.w3.org/1999/xlink">
    <!-- Generator: Sketch 43.2 (39069) - http://www.bohemiancoding.com/sketch -->
    <title>256_coin_white</title>
    <desc>Created with Sketch.</desc>
    <defs>
        <circle id="path-1" cx="128" cy="128" r="128"></circle>
    </defs>
    <g id="Page-2" stroke="none" stroke-width="1" fill="none" fill-rule="evenodd">
        <g id="R-Raven-Coin-White" transform="translate(-219.000000, -17.000000)">
            <g id="256_coin_white" transform="translate(219.000000, 17.000000)">
                <g id="Oval-3">
                    <use fill="#F8FAFC" fill-rule="evenodd" xlink:href="#path-1"></use>
                    <circle stroke="#292D35" stroke-width="6.82833175" cx="128" cy="128" r="124.585834"></circle>
                </g>
                <polygon id="Path-57" fill="#292D35" points="84 127 145.028264 199 188 199 126.128479 127"></polygon>
                <path d="M188,104.436414 C188,51.1067632 131.832469,51 131.832469,51 L73,51 C73,51 89.299818,69.7958984 98.2819455,80.5944144 C104.026941,76.6581217 113.198255,71.5107422 121.874635,71.5107422 C135.922242,71.5107422 146.540921,81.0214844 146.540921,81.0214844 C146.540921,81.0214844 154.765598,81.8549805 168.844526,86.4853516 C179.523063,88.6474609 180.105095,99.9364142 180.105095,100.936414 C180.105095,100.936414 159.94359,96.2109134 149.334772,102.753906 C138.725954,109.296899 137.113379,126.949951 137.113379,126.949951 L157.755569,151 C157.755569,151 188,138.064445 188,104.436414 Z" id="Path-58" fill="#292D35"></path>
            </g>
        </g>
    </g>
</svg>