<?xml version="1.0" encoding="UTF-8" standalone="no"?>
<svg width="115px" height="148px" viewBox="0 0 115 148" version="1.1" xmlns="http://www.w3.org/2000/svg" xmlns:xlink="http://www.w3.org/1999/xlink">
    <!-- Generator: Sketch 43.2 (39069) - http://www.bohemiancoding.com/sketch -->
    <title>256_r_black</title>
    <desc>Created with Sketch.</desc>
    <defs></defs>
    <g id="Page-2" stroke="none" stroke-width="1" fill="none" fill-rule="evenodd">
        <g id="R-Black" transform="translate(-292.000000, -68.000000)" fill="#292D35">
            <g id="256_r_black" transform="translate(292.000000, 68.000000)">
                <polygon id="Path-57" points="11 76 72.0282637 148 115 148 53.1284791 76"></polygon>
                <path d="M115,53.4364142 C115,0.106763157 58.8324694,-3.84547226e-15 58.8324694,-3.84547226e-15 L0,-1.42108547e-14 C0,-1.42108547e-14 16.299818,18.7958984 25.2819455,29.5944144 C31.0269408,25.6581217 40.1982555,20.5107422 48.874635,20.5107422 C62.922242,20.5107422 73.5409208,30.0214844 73.5409208,30.0214844 C73.5409208,30.0214844 81.7655983,30.8549805 95.8445263,35.4853516 C106.523063,37.6474609 107.105095,48.9364142 107.105095,49.9364142 C107.105095,49.9364142 86.9435904,45.2109134 76.3347721,51.7539062 C65.7259539,58.2968991 64.1133786,75.9499512 64.1133786,75.9499512 L84.7555691,100 C84.7555691,100 115,87.0644453 115,53.4364142 Z" id="Path-58"></path>
            </g>
        </g>
    </g>
</svg>