<?xml version="1.0" encoding="UTF-8" standalone="no"?>
<svg width="230px" height="296px" viewBox="0 0 230 296" version="1.1" xmlns="http://www.w3.org/2000/svg" xmlns:xlink="http://www.w3.org/1999/xlink">
    <!-- Generator: Sketch 43.2 (39069) - http://www.bohemiancoding.com/sketch -->
    <title>512_r_black</title>
    <desc>Created with Sketch.</desc>
    <defs></defs>
    <g id="Page-2" stroke="none" stroke-width="1" fill="none" fill-rule="evenodd">
        <g id="R-Black" transform="translate(-722.000000, -119.000000)" fill="#292D35">
            <g id="512_r_black" transform="translate(722.000000, 119.000000)">
                <polygon id="Path-57" points="22 152 144.056527 296 230 296 106.256958 152"></polygon>
                <path d="M230,106.872828 C230,0.213526313 117.664939,6.5199102e-15 117.664939,6.5199102e-15 L0,-1.42108547e-14 C0,-1.42108547e-14 32.5996361,37.5917969 50.563891,59.1888287 C62.0538815,51.3162434 80.3965109,41.0214844 97.74927,41.0214844 C125.844484,41.0214844 147.081842,60.0429688 147.081842,60.0429688 C147.081842,60.0429688 163.531197,61.7099609 191.689053,70.9707031 C213.046126,75.2949219 214.21019,97.8728284 214.21019,99.8728284 C214.21019,99.8728284 173.887181,90.4218268 152.669544,103.507813 C131.451908,116.593798 128.226757,151.899902 128.226757,151.899902 L169.511138,200 C169.511138,200 230,174.128891 230,106.872828 Z" id="Path-58"></path>
            </g>
        </g>
    </g>
</svg>